<svg width="171" height="26" viewBox="0 0 171 26" fill="none" xmlns="http://www.w3.org/2000/svg">
<g clip-path="url(#clip0_96_2642)">
<path d="M4.36888 13.4321L0.443063 20.4028C-0.279779 21.679 -0.106297 23.2222 0.876769 24.2906C1.51287 24.9731 2.32245 25.3293 3.16094 25.3293C3.65248 25.3293 4.17292 25.2106 4.63555 24.9731L12.634 20.7845L7.9257 18.3189C6.25431 17.4411 5.06915 15.932 4.54075 14.15C4.47029 13.9122 4.41307 13.6727 4.36888 13.4321Z" fill="#A59878"/>
<path d="M14.5282 0.222229C16.1473 0.222229 17.622 1.08288 18.4315 2.53708L28.4935 20.4029C29.2163 21.6791 29.0428 23.2223 28.0597 24.2907C27.4236 24.9733 26.6141 25.3295 25.7756 25.3295C25.284 25.3295 24.7636 25.2107 24.301 24.9733L8.71646 16.812C7.47321 16.159 6.57689 15.0313 6.17209 13.6662C5.7673 12.301 5.94078 10.8468 6.63471 9.60035L10.5959 2.53708C11.4344 1.08288 12.8801 0.222229 14.5282 0.222229Z" fill="#7E6C3E"/>
<path d="M55.6712 4.35495V15.7805L44.6279 2.69845C44.5006 2.54979 44.3094 2.50731 44.1395 2.57103L41.5485 3.63289C41.3787 3.6966 41.2725 3.84527 41.2725 4.03639V22.8737C41.2725 23.1073 41.4636 23.2985 41.6972 23.2985H44.9465C45.1802 23.2985 45.3713 23.1073 45.3713 22.8737V9.91911L56.5208 23.1498C56.6057 23.256 56.7119 23.2985 56.8393 23.2985H59.3454C59.5789 23.2985 59.77 23.1073 59.77 22.8737V3.08072C59.77 2.78341 59.4728 2.57103 59.1967 2.67722L55.9473 3.95145C55.7775 4.03639 55.6712 4.18505 55.6712 4.35495Z" fill="#272F36"/>
<path d="M69.2972 7.98633C67.0886 7.98633 65.241 8.75088 63.7119 10.2587C62.1829 11.7877 61.4395 13.6354 61.4395 15.8441C61.4395 18.0527 62.204 19.9003 63.7119 21.4294C65.241 22.9585 67.0886 23.7018 69.2972 23.7018C71.5059 23.7018 73.3747 22.9373 74.9038 21.4294C76.4329 19.9003 77.1975 18.0527 77.1975 15.8441C77.1975 13.6354 76.4329 11.7877 74.9038 10.2587C73.3535 8.75088 71.5059 7.98633 69.2972 7.98633ZM72.1855 18.7961C71.4209 19.5605 70.444 19.9641 69.2972 19.9641C68.1504 19.9641 67.1947 19.5818 66.4303 18.7961C65.6657 18.0315 65.2834 17.0334 65.2834 15.8441C65.2834 14.6548 65.6657 13.6779 66.4303 12.8921C67.1947 12.1276 68.1504 11.7241 69.2972 11.7241C70.444 11.7241 71.4209 12.1063 72.1855 12.8921C72.95 13.6566 73.3535 14.6548 73.3535 15.8441C73.3535 17.0334 72.95 18.0103 72.1855 18.7961Z" fill="#272F36"/>
<path d="M79.2929 23.2982H82.2873C82.5209 23.2982 82.7121 23.1072 82.7121 22.8735V16.265C82.7121 14.8421 83.1792 13.6179 84.0925 13.0021C84.8995 12.4711 85.7913 12.2162 86.7897 12.2586C87.0231 12.2586 87.2352 12.0676 87.2352 11.834V8.53842C87.2352 8.28357 87.0231 8.09243 86.7897 8.11367C85.9617 8.17738 85.1967 8.41099 84.496 8.81453C83.6678 9.28168 83.0731 10.0038 82.7334 10.9595V9.0481C82.7334 8.75081 82.436 8.53842 82.1599 8.6446L79.1442 9.83385C78.9743 9.89757 78.8682 10.0463 78.8682 10.2374V22.8735C78.8682 23.1072 79.0592 23.2982 79.2929 23.2982Z" fill="#272F36"/>
<path d="M88.9046 8.34884H90.1994H90.2215V5.7526C90.2215 5.56147 90.3272 5.41281 90.4975 5.34911L93.4918 4.15982C93.7678 4.05364 94.0642 4.266 94.0642 4.56333V8.34884H97.9828C98.217 8.34884 98.4078 8.53998 98.4078 8.77361V11.6808C98.4078 11.9144 98.217 12.1055 97.9828 12.1055H94.0642V17.5487C94.0642 19.0849 95.0422 19.8016 96.1683 19.8016C96.7126 19.8016 97.297 19.6893 97.7493 19.5553C98.0552 19.4649 98.4206 19.6946 98.4206 20.013V22.9994C98.4206 23.1702 98.3158 23.3239 98.1523 23.3753C97.7383 23.5061 97.09 23.6929 96.1683 23.6929C93.7099 23.6929 90.2215 21.952 90.2215 17.8559V16.6271V12.1055H88.9046C88.6703 12.1055 88.4795 11.9144 88.4795 11.6808V8.77361C88.4795 8.53998 88.6703 8.34884 88.9046 8.34884Z" fill="#272F36"/>
<path d="M126.245 2.01868C123.229 2.01868 120.68 3.0593 118.578 5.16176C116.476 7.26424 115.436 9.8127 115.436 12.8496C115.436 15.8865 116.476 18.4563 118.578 20.5374C120.68 22.6399 123.229 23.6805 126.245 23.6805C129.26 23.6805 131.83 22.6399 133.932 20.5374C136.035 18.435 137.096 15.8865 137.096 12.8496C137.096 9.8127 136.035 7.24301 133.932 5.16176C131.83 3.08053 129.26 2.01868 126.245 2.01868ZM131.044 17.7554C129.749 19.0296 128.155 19.6668 126.245 19.6668C124.333 19.6668 122.74 19.0296 121.445 17.7554C120.149 16.4811 119.513 14.846 119.513 12.8496C119.513 10.8746 120.149 9.21803 121.445 7.94383C122.74 6.64837 124.333 6.01126 126.245 6.01126C128.155 6.01126 129.749 6.64837 131.044 7.94383C132.34 9.23932 132.977 10.8746 132.977 12.8496C132.977 14.846 132.34 16.4811 131.044 17.7554Z" fill="#272F36"/>
<path d="M147.018 7.98633C145.001 7.98633 143.514 8.68715 142.58 10.0675V9.04818C142.58 8.75088 142.282 8.5385 142.006 8.64468L139.011 9.81272C138.842 9.87643 138.735 10.0252 138.735 10.2162V22.8524C138.735 23.0859 138.926 23.2771 139.16 23.2771H142.155C142.389 23.2771 142.58 23.0859 142.58 22.8524V15.2494C142.58 14.0177 142.877 13.1044 143.472 12.4886C144.066 11.8727 144.852 11.5755 145.85 11.5755C146.742 11.5755 147.463 11.8302 147.995 12.3612C148.527 12.8921 148.802 13.6566 148.802 14.6336V22.8736C148.802 23.1071 148.993 23.2983 149.227 23.2983H152.222C152.454 23.2983 152.646 23.1071 152.646 22.8736V14.1663C152.646 12.2338 152.115 10.7259 151.053 9.64277C149.992 8.5385 148.653 7.98633 147.018 7.98633Z" fill="#272F36"/>
<path d="M169.66 15.8443C169.66 13.6144 168.959 11.7456 167.536 10.2376C166.113 8.72988 164.308 7.96533 162.142 7.96533C159.848 7.96533 157.958 8.70863 156.492 10.2165C155.027 11.7243 154.284 13.5932 154.284 15.8231C154.284 18.0955 155.027 19.9643 156.514 21.4509C158.001 22.9375 159.976 23.6808 162.439 23.6808C165.115 23.6808 167.175 22.7464 168.64 20.8775C168.79 20.6651 168.747 20.3678 168.514 20.2404L166.134 18.86C165.965 18.7538 165.753 18.7963 165.604 18.9449C164.861 19.7732 163.819 20.1767 162.482 20.1767C160.188 20.1767 158.808 19.2423 158.277 17.3734H169.15C169.363 17.3734 169.532 17.2035 169.575 17.0124C169.618 16.6301 169.66 16.2266 169.66 15.8443ZM158.213 14.4427C158.426 13.487 158.871 12.7437 159.551 12.2339C160.231 11.7031 161.08 11.4482 162.121 11.4482C162.992 11.4482 163.777 11.7031 164.457 12.1915C165.137 12.68 165.604 13.4445 165.817 14.4639H158.213V14.4427Z" fill="#272F36"/>
<path d="M100.091 1.84276V22.8736C100.091 23.1071 100.282 23.2984 100.516 23.2984H103.51C103.744 23.2984 103.935 23.1071 103.935 22.8736V15.2494C103.935 14.0176 104.232 13.1044 104.827 12.4886C105.422 11.8728 106.207 11.5755 107.205 11.5755C108.097 11.5755 108.819 11.8302 109.35 12.3612C109.881 12.8922 110.157 13.6566 110.157 14.6336V22.8736C110.157 23.1071 110.348 23.2984 110.582 23.2984H113.576C113.81 23.2984 114.001 23.1071 114.001 22.8736V14.1664C114.001 12.2338 113.47 10.7259 112.409 9.64277C111.347 8.55975 110.008 8.00758 108.373 8.00758C106.356 8.00758 104.869 8.70841 103.935 10.0888V0.653476C103.935 0.356156 103.637 0.143785 103.361 0.24997L100.367 1.43924C100.196 1.50296 100.091 1.65162 100.091 1.84276Z" fill="#272F36"/>
</g>
<defs>
<clipPath id="clip0_96_2642">
<rect width="170.37" height="25.5556" fill="white" transform="translate(0 0.222229)"/>
</clipPath>
</defs>
</svg>
