<svg width="152" height="28" viewBox="0 0 152 28" fill="none" xmlns="http://www.w3.org/2000/svg">
<g clip-path="url(#clip0_96_2627)">
<path d="M54.1067 27.2289C48.6359 27.2289 43.5576 25.5903 40.1677 22.5515C37.6067 20.2557 36.3761 17.1372 36.3761 13.9276C36.3761 10.7571 37.6598 7.61712 40.1674 5.3334C43.3156 2.46784 48.8737 0.673279 54.1067 0.673279C59.8978 0.673279 64.5328 2.13013 68.0761 5.34127C70.5971 7.6262 71.8159 10.7522 71.8159 13.9279C71.8159 17.0061 70.5225 20.2842 68.0761 22.5515C64.7766 25.61 59.5915 27.2289 54.1067 27.2289V23.7264C57.0104 23.7264 59.704 22.7251 61.5851 20.8557C63.4532 18.9991 64.3235 16.7168 64.3235 13.9276C64.3235 11.2556 63.3846 8.75745 61.5851 6.98561C59.7292 5.15985 56.9713 4.13248 54.1067 4.13248C51.2334 4.13248 48.4737 5.14925 46.6162 6.98561C44.8264 8.75684 43.8851 11.2623 43.8851 13.9276C43.8851 16.5848 44.8373 19.0887 46.6162 20.856C48.4752 22.703 51.2252 23.7267 54.1067 23.7267V27.2292V27.2289ZM14.1208 0.686C11.1943 0.686 7.86971 1.2327 5.04487 2.49268C2.43775 3.65453 0.303712 5.5336 0.303712 8.64871C0.302499 11.4543 2.08779 13.0974 2.03927 13.052C2.79863 13.7501 4.02107 14.9389 7.21712 15.6371C8.64544 15.949 11.6993 16.4282 14.7403 16.7456C17.759 17.0636 20.7297 17.3659 21.9397 17.6718C22.9011 17.9163 24.5159 18.2491 24.5159 20.0585C24.5159 21.8607 22.8146 22.4107 22.5189 22.53C22.2236 22.6466 20.1826 23.5819 16.5138 23.5819C13.8051 23.5819 10.5487 22.7684 9.36174 22.3444C7.99344 21.8579 6.55813 21.2146 5.21924 19.5812C4.88627 19.1762 4.36102 18.0625 4.36102 16.9598H1.04064V26.2521H4.7313V24.9967C4.7313 24.8537 4.91022 24.2658 5.52978 24.5454C6.30067 24.8952 8.56356 25.7951 10.9296 26.2885C12.8695 26.6937 14.1205 26.9842 16.5323 26.9842C20.4674 26.9842 22.5814 26.3439 24.0428 25.9271C25.4196 25.5334 27.1209 24.8265 28.5029 23.7258C29.2513 23.1307 30.8925 21.605 30.8925 18.8358C30.8925 16.1777 29.4642 14.5279 28.9617 14.0261C28.2772 13.3422 27.4411 12.8121 26.5699 12.4035C25.8108 12.0467 24.613 11.6182 23.6328 11.3786C21.7305 10.9121 17.429 10.3367 15.372 10.1216C13.215 9.89658 9.47304 9.58704 7.97858 9.12515C7.52553 8.98491 6.6018 8.54543 6.6018 7.47446C6.6018 6.71272 7.02424 6.06697 7.85909 5.54511C9.18434 4.71582 11.8612 4.20032 14.6515 4.20032C17.9503 4.18821 20.744 4.94147 22.5211 5.73502C23.1255 6.00458 23.8327 6.39166 24.3943 6.84962C25.0281 7.36573 25.9179 8.43821 26.2396 9.93414H29.2207V1.84542H25.8921V2.78557C25.8921 3.08905 25.5782 3.4834 24.9847 3.1575C23.4951 2.37698 19.2835 0.692966 14.1202 0.686H14.1208ZM87.0646 2.15588L103.302 16.7911L103.135 6.93745C103.119 5.64536 102.88 5.10593 101.482 5.10593H98.4285V2.1583H112.312V5.10593H109.334C107.906 5.10593 107.817 5.56177 107.799 6.93745L108.051 25.7654H103.297L84.5946 9.09486L84.5984 20.926C84.6143 22.212 84.675 22.8178 86.0017 22.8178H89.3361V25.7642H75.7015V22.8181H78.8888C80.0791 22.8181 80.0321 21.6844 80.0321 20.859V7.04952C80.0321 6.15814 79.907 5.10805 78.0374 5.10805H75.4513V2.15588H87.0646ZM128.176 22.8123C128.306 22.8123 128.886 22.7957 128.998 22.7614C129.319 22.6615 129.536 22.4331 129.636 22.1951C129.679 22.0951 129.7 21.6529 129.7 21.5569L129.703 16.8986C129.703 16.7865 129.695 16.7381 129.504 16.4885C129.295 16.2159 120.999 6.8266 120.62 6.41317C120.148 5.89978 119.32 5.10624 118.062 5.10624H115.177V2.15739H131.458V5.1026H129.495C129.042 5.1026 128.74 5.53269 129.127 6.01064C129.127 6.01064 134.605 12.555 134.657 12.6234C134.708 12.6931 134.752 12.7097 134.822 12.6461C134.89 12.581 140.437 6.07061 140.481 6.01912C140.745 5.70352 140.566 5.10593 139.997 5.10593H137.983V2.15739H151.327V5.10593H148.346C147.265 5.10593 146.824 5.30584 146.011 6.22447C145.638 6.64487 137.254 16.2029 137.027 16.4618C136.907 16.5972 136.917 16.7859 136.917 16.898V21.5557C136.917 21.6502 136.939 22.093 136.981 22.1923C137.082 22.4316 137.3 22.66 137.621 22.7587C137.733 22.7932 138.304 22.8102 138.434 22.8102H141.484V25.7584H125.287V22.8099L128.177 22.8123H128.176Z" fill="black"/>
</g>
<defs>
<clipPath id="clip0_96_2627">
<rect width="151.63" height="27.2593" fill="white" transform="translate(0 0.370361)"/>
</clipPath>
</defs>
</svg>
